<svg xmlns="http://www.w3.org/2000/svg" viewBox="0 0 205.69 226.66"><defs><style>.cls-1{fill:#ab1e57;stroke:#fff;stroke-miterlimit:10;stroke-width:2.6px;}.cls-2{fill:#fff;}</style></defs><title>Asset 1</title><g id="Layer_2" data-name="Layer 2"><g id="Layer_1-2" data-name="Layer 1"><polygon class="cls-1" points="204.39 158.32 1.3 224.87 1.3 68.35 204.39 1.79 204.39 158.32"/><path class="cls-2" d="M30.3,149.06l16.12-5.19.08-25.14-16.13,5.19Zm-.16,50.27,16.13-5.18L46.34,169l-16.12,5.18Zm.31-100.55,16.12-5.19.08-25.14L30.53,73.64Zm32.09,39.91L175.4,102.4l.08-25.14L62.62,113.55ZM62.39,189l112.86-36.29.07-25.13L62.47,163.83Zm.38-125.69L62.7,88.41,175.55,52.12,175.63,27ZM30.3,149.06l16.12-5.19.08-25.14-16.13,5.19Zm-.16,50.27,16.13-5.18L46.34,169l-16.12,5.18Zm.31-100.55,16.12-5.19.08-25.14L30.53,73.64Zm32.09,39.91L175.4,102.4l.08-25.14L62.62,113.55ZM62.39,189l112.86-36.29.07-25.13L62.47,163.83Zm.38-125.69L62.7,88.41,175.55,52.12,175.63,27Z"/></g></g></svg>