<svg xmlns="http://www.w3.org/2000/svg" viewBox="0 0 205.69 226.66"><defs><style>.cls-1{fill:#ab1e57;stroke:#fff;stroke-miterlimit:10;stroke-width:2.6px;}.cls-2{fill:#fff;}</style></defs><title>Asset 1</title><g id="Layer_2" data-name="Layer 2"><g id="Layer_1-2" data-name="Layer 1"><polygon class="cls-1" points="204.39 158.32 1.3 224.87 1.3 68.35 204.39 1.79 204.39 158.32"/><path class="cls-2" d="M56.07,140.19l10.32-3.31,0-16.1L56.12,124.1ZM56,172.38l10.33-3.32,0-16.09L56,156.29Zm.2-64.37,10.32-3.32.05-16.09L56.22,91.92Zm20.54,25.55L149,110.33l0-16.1L76.76,117.46Zm-.09,32.18,72.24-23.23,0-16.09L76.66,149.65Zm.24-80.46,0,16.09,72.24-23.23,0-16.09ZM56.07,140.19l10.32-3.31,0-16.1L56.12,124.1ZM56,172.38l10.33-3.32,0-16.09L56,156.29Zm.2-64.37,10.32-3.32.05-16.09L56.22,91.92Zm20.54,25.55L149,110.33l0-16.1L76.76,117.46Zm-.09,32.18,72.24-23.23,0-16.09L76.66,149.65Zm.24-80.46,0,16.09,72.24-23.23,0-16.09Z"/></g></g></svg>