<svg xmlns="http://www.w3.org/2000/svg" xmlns:xlink="http://www.w3.org/1999/xlink" viewBox="0 0 1923.43 975.49"><defs><style>.cls-1,.cls-2,.cls-3,.cls-4{fill:none;}.cls-2,.cls-3,.cls-4{stroke:#1d1d1b;}.cls-2{stroke-width:1.44px;}.cls-3{stroke-width:3.6px;}.cls-4{stroke-width:4.8px;}.cls-5{fill:#e09d9d;stroke:#fff;stroke-miterlimit:10;stroke-width:2.01px;opacity:0.3;}.cls-6,.cls-7,.cls-8{opacity:0.25;}.cls-6{fill:url(#_40_6_lpp);}.cls-7{fill:url(#_20_10_lpp);}.cls-8{fill:url(#_30_6_lpp);}</style><pattern id="_40_6_lpp" data-name="40 % 6 lpp" width="72" height="72" patternTransform="matrix(0.5, -1.09, -0.87, -0.63, -74.15, -3881.35)" patternUnits="userSpaceOnUse" viewBox="0 0 72 72"><rect class="cls-1" width="72" height="72"/><line class="cls-4" x1="71.75" y1="66" x2="144.25" y2="66"/><line class="cls-4" x1="71.75" y1="42" x2="144.25" y2="42"/><line class="cls-4" x1="71.75" y1="18" x2="144.25" y2="18"/><line class="cls-4" x1="71.75" y1="54" x2="144.25" y2="54"/><line class="cls-4" x1="71.75" y1="30" x2="144.25" y2="30"/><line class="cls-4" x1="71.75" y1="6" x2="144.25" y2="6"/><line class="cls-4" x1="-0.25" y1="66" x2="72.25" y2="66"/><line class="cls-4" x1="-0.25" y1="42" x2="72.25" y2="42"/><line class="cls-4" x1="-0.25" y1="18" x2="72.25" y2="18"/><line class="cls-4" x1="-0.25" y1="54" x2="72.25" y2="54"/><line class="cls-4" x1="-0.25" y1="30" x2="72.25" y2="30"/><line class="cls-4" x1="-0.25" y1="6" x2="72.25" y2="6"/><line class="cls-4" x1="-72.25" y1="66" x2="0.25" y2="66"/><line class="cls-4" x1="-72.25" y1="42" x2="0.25" y2="42"/><line class="cls-4" x1="-72.25" y1="18" x2="0.25" y2="18"/><line class="cls-4" x1="-72.25" y1="54" x2="0.25" y2="54"/><line class="cls-4" x1="-72.25" y1="30" x2="0.25" y2="30"/><line class="cls-4" x1="-72.25" y1="6" x2="0.25" y2="6"/></pattern><pattern id="_20_10_lpp" data-name="20 % 10 lpp" width="72" height="72" patternTransform="matrix(0.87, 0.63, 0.51, -1.09, 1252.4, -3875.27)" patternUnits="userSpaceOnUse" viewBox="0 0 72 72"><rect class="cls-1" width="72" height="72"/><line class="cls-2" x1="71.75" y1="68.4" x2="144.25" y2="68.4"/><line class="cls-2" x1="71.75" y1="54" x2="144.25" y2="54"/><line class="cls-2" x1="71.75" y1="39.6" x2="144.25" y2="39.6"/><line class="cls-2" x1="71.75" y1="25.2" x2="144.25" y2="25.2"/><line class="cls-2" x1="71.75" y1="10.8" x2="144.25" y2="10.8"/><line class="cls-2" x1="71.75" y1="61.2" x2="144.25" y2="61.2"/><line class="cls-2" x1="71.75" y1="46.8" x2="144.25" y2="46.8"/><line class="cls-2" x1="71.75" y1="32.4" x2="144.25" y2="32.4"/><line class="cls-2" x1="71.75" y1="18" x2="144.25" y2="18"/><line class="cls-2" x1="71.75" y1="3.6" x2="144.25" y2="3.6"/><line class="cls-2" x1="-0.25" y1="68.4" x2="72.25" y2="68.4"/><line class="cls-2" x1="-0.25" y1="54" x2="72.25" y2="54"/><line class="cls-2" x1="-0.25" y1="39.6" x2="72.25" y2="39.6"/><line class="cls-2" x1="-0.25" y1="25.2" x2="72.25" y2="25.2"/><line class="cls-2" x1="-0.25" y1="10.8" x2="72.25" y2="10.8"/><line class="cls-2" x1="-0.25" y1="61.2" x2="72.25" y2="61.2"/><line class="cls-2" x1="-0.25" y1="46.8" x2="72.25" y2="46.8"/><line class="cls-2" x1="-0.25" y1="32.4" x2="72.25" y2="32.4"/><line class="cls-2" x1="-0.25" y1="18" x2="72.25" y2="18"/><line class="cls-2" x1="-0.25" y1="3.6" x2="72.25" y2="3.6"/><line class="cls-2" x1="-72.25" y1="68.4" x2="0.25" y2="68.4"/><line class="cls-2" x1="-72.25" y1="54" x2="0.25" y2="54"/><line class="cls-2" x1="-72.25" y1="39.6" x2="0.25" y2="39.6"/><line class="cls-2" x1="-72.25" y1="25.2" x2="0.25" y2="25.2"/><line class="cls-2" x1="-72.25" y1="10.8" x2="0.25" y2="10.8"/><line class="cls-2" x1="-72.25" y1="61.2" x2="0.25" y2="61.2"/><line class="cls-2" x1="-72.25" y1="46.8" x2="0.25" y2="46.8"/><line class="cls-2" x1="-72.25" y1="32.4" x2="0.25" y2="32.4"/><line class="cls-2" x1="-72.25" y1="18" x2="0.25" y2="18"/><line class="cls-2" x1="-72.25" y1="3.6" x2="0.25" y2="3.6"/></pattern><pattern id="_30_6_lpp" data-name="30 % 6 lpp" width="72" height="72" patternTransform="matrix(-0.81, 0, 0, 1, 337.69, -2134.94)" patternUnits="userSpaceOnUse" viewBox="0 0 72 72"><rect class="cls-1" width="72" height="72"/><line class="cls-3" x1="71.75" y1="66" x2="144.25" y2="66"/><line class="cls-3" x1="71.75" y1="42" x2="144.25" y2="42"/><line class="cls-3" x1="71.75" y1="18" x2="144.25" y2="18"/><line class="cls-3" x1="71.75" y1="54" x2="144.25" y2="54"/><line class="cls-3" x1="71.75" y1="30" x2="144.25" y2="30"/><line class="cls-3" x1="71.75" y1="6" x2="144.25" y2="6"/><line class="cls-3" x1="-0.25" y1="66" x2="72.25" y2="66"/><line class="cls-3" x1="-0.25" y1="42" x2="72.25" y2="42"/><line class="cls-3" x1="-0.25" y1="18" x2="72.25" y2="18"/><line class="cls-3" x1="-0.25" y1="54" x2="72.25" y2="54"/><line class="cls-3" x1="-0.25" y1="30" x2="72.25" y2="30"/><line class="cls-3" x1="-0.25" y1="6" x2="72.25" y2="6"/><line class="cls-3" x1="-72.25" y1="66" x2="0.25" y2="66"/><line class="cls-3" x1="-72.25" y1="42" x2="0.25" y2="42"/><line class="cls-3" x1="-72.25" y1="18" x2="0.25" y2="18"/><line class="cls-3" x1="-72.25" y1="54" x2="0.25" y2="54"/><line class="cls-3" x1="-72.25" y1="30" x2="0.25" y2="30"/><line class="cls-3" x1="-72.25" y1="6" x2="0.25" y2="6"/></pattern></defs><title>Asset 3</title><g id="Layer_2" data-name="Layer 2"><g id="Calque_1" data-name="Calque 1"><polygon class="cls-5" points="1.01 836.29 293.84 734.28 748.61 923.3 1463.27 696.92 1921.01 839.29 1921.01 1.01 1.01 1.01 1.01 836.29"/><path class="cls-6" d="M1,1V363.37c56.18-6.15,112.26-15.58,168.51-26.36q25-167,37.86-336Z"/><path class="cls-7" d="M1,928.88l38.21-15.24c31.2-101.93,59.94-205.57,82.64-313.49q11.76-55.06,22-110.15Q72.42,486.72,1,482.32Z"/><path class="cls-7" d="M1,363.37v119q71.4,4.41,142.81,7.68,14.22-76.41,25.7-153C113.27,347.79,57.19,357.22,1,363.37Z"/><path class="cls-8" d="M625.71,251Q613.8,125.55,596.2,1H316c18,99.1,40.5,196.61,65.46,293.23q14.77-2.87,29.6-5.64Q519.08,269.94,625.71,251Z"/><path class="cls-7" d="M505,728l9.79-3.91,140.82,52.67q-3.5-137.82-11.06-275.11-103.36-.47-206.72-2.34C459.78,575.65,482.49,651.77,505,728Z"/><path class="cls-6" d="M411,288.6q-14.82,2.76-29.6,5.64c17.75,68.72,36.78,137,56.38,205.05q103.35,1.93,206.72,2.34Q637.38,376,625.71,251,519,269.93,411,288.6Z"/><path class="cls-7" d="M1020.25,1H736.37c47.34,64.25,88.8,134.06,126.84,207.18q116.94-21.3,233-42.79Q1058.74,82.9,1020.25,1Z"/><path class="cls-7" d="M1242.27,496.94q-122.54,1.8-245,3.23c26.54,62.37,52.86,125.07,80.19,187Q1100.71,740,1122.83,793c60.31-55.12,121.8-103.46,174.34-166Q1270,561.85,1242.27,496.94Z"/><path class="cls-8" d="M1404.22,889.24q-52.6-131.68-107-262.19c-52.54,62.53-114,110.87-174.34,166q37.32,89.39,72,179.34Z"/><path class="cls-6" d="M863.21,208.19c48.6,93.42,91.6,192.27,134,292q122.49-1.32,245-3.23-71.26-166.89-146-331.54Q980.08,186.88,863.21,208.19Z"/><path class="cls-7" d="M1278,581.18q104.31-54.07,207.55-107.61,3.35-46.33,5.49-92.67c-113.75-44.12-232.56-61.4-345.52-105.95Q1213.19,427.13,1278,581.18Z"/><path class="cls-7" d="M1210.71,55.65a10.44,10.44,0,0,0,.92,1.8l3.6-1.8-3.6,1.8c1.84,2.91,4.56,3.81,7.49,5.13-.54-.44-1.09-.87-1.63-1.32.54.45,1.09.88,1.63,1.32a23.38,23.38,0,0,1,2.89,1.49,23.38,23.38,0,0,0-2.89-1.49C1301.6,129.7,1398.59,162.86,1494.18,199c-.87-66.08-4.08-132.09-10.15-198H1020.25q28,59.58,55.45,119.54,68.5-29.11,135.93-63.1A10.44,10.44,0,0,1,1210.71,55.65Z"/><path class="cls-8" d="M1494.18,199c-95.59-36.13-192.58-69.29-275.06-136.41-2.93-1.32-5.65-2.22-7.49-5.13q-67.39,34.06-135.93,63.1,35.28,77,69.78,154.4c113,44.55,231.77,61.83,345.52,106C1493.81,320.23,1495,259.58,1494.18,199Z"/><path class="cls-6" d="M1278,581.18q64.43,153.2,126.26,308.06l35.29-14c19.76-133.74,36.37-267.74,46-401.67Q1382.15,527.19,1278,581.18Z"/><path class="cls-8" d="M1439.51,875.24l202.39-80.33c41.22-103.2,85.64-204.38,132.34-304.14q-145.14.6-290.22,2.69C1474.22,620.77,1458.29,748.12,1439.51,875.24Z"/><path class="cls-7" d="M1484,493.46q145.08-1.9,290.22-2.69,44.57-95.19,91.66-188.83c-114.65-63.37-253.61-80.71-372.06-121.92C1495.94,284.36,1492.07,388.89,1484,493.46Z"/><path class="cls-7" d="M1879.38,16.36c1.21,1.15,2.43,2.26,3.66,3.37l3.12-.57-3.12.57a236.15,236.15,0,0,0,40.39,29.54V1H1484q4.2,45.53,6.6,91.13Q1686.13,55.79,1883,19.73C1881.81,18.62,1880.59,17.51,1879.38,16.36Z"/><path class="cls-6" d="M1883,19.73q-197.28,36-392.41,72.41,2.37,43.92,3.21,87.88c118.45,41.21,257.41,58.55,372.06,121.92q28.41-56.65,57.53-112.89V49.27A236.15,236.15,0,0,1,1883,19.73Z"/><path class="cls-6" d="M1923.43,581.27V189.05c-67.15,129.82-131.84,261.07-192,395.14C1795.63,587.1,1859.5,584.71,1923.43,581.27Z"/><path class="cls-7" d="M1731.43,584.19q-46.74,104.13-89.53,210.72l21.37-8.49,260.16,110.45V581.27C1859.5,584.71,1795.63,587.1,1731.43,584.19Z"/><path class="cls-6" d="M1077.43,687.15c-1.22-2.76-2.43-5.54-3.65-8.31C969,723.29,862.75,763.35,763.7,817.18l423.24,158.31,7.84-3.11C1157.84,876.84,1119.1,781.7,1077.43,687.15Z"/><path class="cls-6" d="M736.37,1H596.2q18.74,130.92,30.72,262.88c78-18,155.51-38.83,232.31-63.31C822.28,130.22,782.07,63,736.37,1Z"/><path class="cls-7" d="M626.92,263.89c11.37,122.5,19,245.57,24,369,99.23-86.35,191-185.21,277.85-289.51-22.15-48.62-45.12-96.39-69.5-142.8C782.43,225.06,704.92,245.93,626.92,263.89Z"/><path class="cls-8" d="M650.88,632.89q2.91,71.85,4.7,143.85L763.7,817.18c99-53.83,205.27-93.89,310.08-138.34-49-111.62-95-225.62-145-335.46C841.91,447.68,750.11,546.54,650.88,632.89Z"/><path class="cls-7" d="M316,1H207.38Q194.17,172.11,169,340.52c72.31-8.45,144.61-18.22,216.7-29.85C359,208.68,335,105.74,316,1Z"/><path class="cls-8" d="M169,340.52q-19.6,130.11-47.14,259.63-1.31,6.2-2.65,12.38C200.85,673,284.8,728.47,369.75,781.88L505,728C464.06,589.25,422.35,450.86,385.7,310.67,313.61,322.3,241.31,332.07,169,340.52Z"/><path class="cls-6" d="M369.75,781.88C284.8,728.47,200.85,673,119.21,612.53c-22.27,103.47-50,203.09-80,301.11Z"/></g></g></svg>