<svg xmlns="http://www.w3.org/2000/svg" viewBox="0 0 117.39 117.39"><defs><style>.cls-1{fill:#fff;}.cls-2{fill:#010101;}</style></defs><title>Asset 1</title><g id="Layer_2" data-name="Layer 2"><g id="Calque_1" data-name="Calque 1"><rect class="cls-1" width="117.39" height="117.39"/><path class="cls-2" d="M58.42,20.36c12.48,0,14,0,18.89.27A26,26,0,0,1,86,22.24a15.54,15.54,0,0,1,8.87,8.87,26,26,0,0,1,1.61,8.69c.23,4.93.27,6.41.27,18.89s0,14-.27,18.9a25.86,25.86,0,0,1-1.61,8.68A15.49,15.49,0,0,1,86,95.15a26,26,0,0,1-8.69,1.61C72.38,97,70.9,97,58.42,97s-14,0-18.9-.27a25.86,25.86,0,0,1-8.68-1.61A15.49,15.49,0,0,1,22,86.27a25.86,25.86,0,0,1-1.61-8.68c-.22-4.93-.27-6.41-.27-18.9s.05-14,.27-18.89A26,26,0,0,1,22,31.11a14.53,14.53,0,0,1,3.5-5.37,14.45,14.45,0,0,1,5.38-3.5,25.86,25.86,0,0,1,8.68-1.61c4.93-.23,6.41-.27,18.9-.27m0-8.43c-12.7,0-14.3.06-19.28.28a34.23,34.23,0,0,0-11.35,2.18A23.86,23.86,0,0,0,14.11,28.06a34.11,34.11,0,0,0-2.17,11.35c-.23,5-.29,6.58-.29,19.28S11.71,73,11.94,78a34.12,34.12,0,0,0,2.17,11.36A23.86,23.86,0,0,0,27.79,103a34,34,0,0,0,11.35,2.17c5,.23,6.58.29,19.28.29s14.29-.06,19.28-.29A34.11,34.11,0,0,0,89.05,103a23.9,23.9,0,0,0,13.67-13.67A34.35,34.35,0,0,0,104.9,78c.23-5,.28-6.58.28-19.28s-.05-14.29-.28-19.28a34.34,34.34,0,0,0-2.18-11.35A23.88,23.88,0,0,0,89.05,14.39,34.34,34.34,0,0,0,77.7,12.21c-5-.22-6.58-.28-19.28-.28Z"/><path class="cls-2" d="M58.42,34.68a24,24,0,1,0,24,24h0A24,24,0,0,0,58.42,34.68Zm0,39.6A15.59,15.59,0,1,1,74,58.69,15.59,15.59,0,0,1,58.42,74.28Z"/><circle class="cls-2" cx="83.38" cy="33.73" r="5.61"/></g></g></svg>