<svg xmlns="http://www.w3.org/2000/svg" xmlns:xlink="http://www.w3.org/1999/xlink" viewBox="0 0 193.6 239.04"><defs><style>.cls-1,.cls-11,.cls-13,.cls-14,.cls-4,.cls-5,.cls-6,.cls-8{fill:none;}.cls-2{clip-path:url(#clip-path);}.cls-3{fill:#fff;}.cls-4{stroke:#fff;}.cls-11,.cls-4{stroke-miterlimit:10;}.cls-11,.cls-4,.cls-5{stroke-width:3.81px;}.cls-11,.cls-5,.cls-6,.cls-8{stroke:#1d1d1b;}.cls-5,.cls-6{stroke-linecap:round;}.cls-6{stroke-width:4.19px;}.cls-7{fill:#1d1d1b;}.cls-8{stroke-width:6.29px;}.cls-9{fill:#ffde7a;}.cls-10{clip-path:url(#clip-path-2);}.cls-12{fill:#fac055;}.cls-13,.cls-14{stroke:#000;}.cls-13{stroke-width:3.74px;}.cls-14{stroke-width:4.99px;}</style><clipPath id="clip-path" transform="translate(-90.15 -42.16)"><polygon id="SVGID" class="cls-1" points="0 1.31 376.55 0 376.55 385.38 0 386.7 0 1.31"/></clipPath><clipPath id="clip-path-2" transform="translate(-90.15 -42.16)"><polygon id="SVGID-2" data-name="SVGID" class="cls-1" points="68.24 360.01 305.14 359.18 305.14 40.13 68.24 40.95 68.24 360.01"/></clipPath></defs><title>Asset 1</title><g id="Layer_2" data-name="Layer 2"><g id="Layer_1-2" data-name="Layer 1"><g class="cls-2"><polygon class="cls-3" points="48.94 99.87 48.94 83.43 59.12 76.47 72.59 74.68 87.89 72.33 98.13 65.44 114.47 62.9 124.83 79.47 137.61 86.17 140.66 96.62 82.36 95.24 74.33 107.86 61.33 111.36 48.94 99.87"/><polygon class="cls-4" points="48.94 99.87 48.94 83.43 59.12 76.47 72.59 74.68 87.89 72.33 98.13 65.44 114.47 62.9 124.83 79.47 137.61 86.17 140.66 96.62 82.36 95.24 74.33 107.86 61.33 111.36 48.94 99.87"/><polygon class="cls-5" points="12.82 206.65 19.52 196.79 28.83 196.76 22.13 206.62 12.82 206.65"/><polygon class="cls-5" points="22.21 206.62 28.92 196.76 38.23 196.73 31.52 206.59 22.21 206.62"/><polygon class="cls-5" points="38.23 196.48 31.52 186.67 22.21 186.71 28.92 196.51 38.23 196.48"/><polygon class="cls-5" points="28.84 196.51 22.12 186.71 12.82 186.74 19.53 196.55 28.84 196.51"/><line class="cls-6" x1="38.23" y1="196.23" x2="155.38" y2="195.82"/><polygon class="cls-5" points="19.63 196.55 12.91 186.74 3.61 186.77 10.32 196.58 19.63 196.55"/><polygon class="cls-5" points="3.61 206.81 10.32 196.95 19.62 196.92 12.92 206.78 3.61 206.81"/><polygon class="cls-5" points="180.79 186.03 174.08 195.88 164.77 195.92 171.48 186.06 180.79 186.03"/><polygon class="cls-5" points="171.39 186.06 164.69 195.92 155.37 195.95 162.08 186.09 171.39 186.06"/><polygon class="cls-5" points="155.38 196.2 162.09 206 171.39 205.97 164.68 196.17 155.38 196.2"/><polygon class="cls-5" points="164.77 196.17 171.48 205.97 180.78 205.94 174.08 196.13 164.77 196.17"/><polygon class="cls-5" points="173.98 196.14 180.69 205.94 190 205.91 183.29 196.1 173.98 196.14"/><polygon class="cls-5" points="190 185.99 183.29 195.85 173.98 195.88 180.69 186.03 190 185.99"/><polyline class="cls-3" points="137.88 96.63 83.35 96.82 78.85 103.94 74.34 107.86 62.89 108.85 51.44 107.58 51.44 117.88 66.36 235.87 128.04 234.41 140.94 103.72"/><path class="cls-7" d="M144.08,172.24,228,172Z" transform="translate(-90.15 -42.16)"/><line class="cls-8" x1="53.93" y1="130.08" x2="137.88" y2="129.78"/><path class="cls-7" d="M155.19,278l63.12-.22Z" transform="translate(-90.15 -42.16)"/><line class="cls-8" x1="65.04" y1="235.87" x2="128.16" y2="235.65"/><polyline class="cls-9" points="78.37 136.61 61.33 136.67 72.43 230.33 83.85 230.29"/><g class="cls-10"><path class="cls-11" d="M229,138.62a8.59,8.59,0,0,0-5.88-2.23l-25.45.08a16.42,16.42,0,0,1,15.42-11.57c8.08-.28,14.69,5.71,15.91,13.72m-16.15-17c-8.81,0-16.16,6.32-18.36,14.85l-22,.07a1.58,1.58,0,0,0-1.47,1.26l-.24.75a16.38,16.38,0,0,1-15.67,12.33,15.53,15.53,0,0,1-12-5.47,17.15,17.15,0,0,1-3.92-13.26,16.4,16.4,0,0,1,13.95-14.58,15.66,15.66,0,0,1,9.55,1.72,19.74,19.74,0,0,0-5.88,20.06,1.57,1.57,0,0,0,1.47,1.25h.49a1.59,1.59,0,0,0,1-2,14.14,14.14,0,0,1-.49-4.51c0-9,7.35-16.56,16.16-16.59,1,0,2,.25,2.94.24a20,20,0,0,0-.74,5.52,1.47,1.47,0,1,0,2.94,0c0-9,7.34-16.56,16.15-16.59a16.3,16.3,0,0,1,16.16,15m19.09,22.48a13.13,13.13,0,0,0,.49-3A19.68,19.68,0,0,0,216,121.63a19.06,19.06,0,0,0-36.47-6.89,23.58,23.58,0,0,0-4.16-.48,17.58,17.58,0,0,0-10,3,20.32,20.32,0,0,0-12.73-2.71,19.82,19.82,0,0,0-16.4,17.34,19.58,19.58,0,0,0,3.92,14.26l15,133.1h3.24L146.77,178.85l-.28-2.37-.31-3.38-2.62-23.16a19.6,19.6,0,0,0,11.75,4,19.05,19.05,0,0,0,18.36-14.35l49.68-.17a6,6,0,0,1,4.41,2,5.59,5.59,0,0,1,1.46,4.75l-2.91,27.13-.27,3.2h0L215.37,279.08h3l13.57-132.7Z" transform="translate(-90.15 -42.16)"/></g><polyline class="cls-12" points="83.85 230.28 120.73 230.15 130.01 136.43 78.37 136.61"/><g class="cls-2"><path class="cls-13" d="M212.58,82.85a8.15,8.15,0,0,0,8.25-8.21c0-4.66-3.69-8.71-8.25-8.69a8.45,8.45,0,0,0,0,16.9Z" transform="translate(-90.15 -42.16)"/><path class="cls-14" d="M175.18,71.15a12.9,12.9,0,0,0,12.93-13c0-7.31-5.79-13.5-12.93-13.47a13.25,13.25,0,0,0,0,26.49Z" transform="translate(-90.15 -42.16)"/><line class="cls-8" x1="137.88" y1="95.05" x2="140.66" y2="99.55"/><line class="cls-8" x1="122.43" y1="79.48" x2="124.84" y2="81.48"/></g></g></g></g></svg>