<svg xmlns="http://www.w3.org/2000/svg" xmlns:xlink="http://www.w3.org/1999/xlink" viewBox="0 0 463.57 872.91"><defs><style>.cls-1,.cls-10,.cls-13,.cls-15,.cls-16,.cls-6,.cls-7,.cls-8{fill:none;}.cls-2{fill:#ac1f57;stroke-width:2.6px;}.cls-2,.cls-6{stroke:#fff;}.cls-13,.cls-2,.cls-6{stroke-miterlimit:10;}.cls-3{font-size:184.82px;font-family:FuturaBT-ExtraBlack, Futura XBlk BT;}.cls-3,.cls-4{fill:#fff;}.cls-5{clip-path:url(#clip-path);}.cls-13,.cls-6,.cls-7{stroke-width:8.62px;}.cls-10,.cls-13,.cls-7,.cls-8{stroke:#1d1d1b;}.cls-7,.cls-8{stroke-linecap:round;}.cls-8{stroke-width:9.48px;}.cls-9{fill:#1d1d1b;}.cls-10{stroke-width:14.22px;}.cls-11{fill:#ffde7a;}.cls-12{clip-path:url(#clip-path-2);}.cls-14{fill:#fac054;}.cls-15,.cls-16{stroke:#000;}.cls-15{stroke-width:8.47px;}.cls-16{stroke-width:11.29px;}</style><clipPath id="clip-path" transform="translate(-187.97 -95.39)"><polygon class="cls-1" points="0 2.97 851.86 0 851.87 871.86 0.01 874.83 0 2.97"/></clipPath><clipPath id="clip-path-2" transform="translate(-187.97 -95.39)"><polygon class="cls-1" points="154.38 814.45 690.33 812.58 690.33 90.77 154.38 92.64 154.38 814.45"/></clipPath></defs><title>Asset 1</title><g id="Layer_2" data-name="Layer 2"><g id="Calque_1" data-name="Calque 1"><polygon class="cls-2" points="462.27 720.05 1.3 871.11 1.3 515.84 462.27 364.78 462.27 720.05"/><text class="cls-3" transform="matrix(0.86, -0.29, -0.01, 1, 29.82, 816.29)">LMF</text><polygon class="cls-4" points="367.48 443.87 382.66 421 448.2 421 430.63 443.08 445.81 465.83 382.66 466.05 367.48 443.87"/><g class="cls-5"><polygon class="cls-4" points="126.69 225.94 126.69 188.75 149.72 173.01 180.19 168.94 214.82 163.64 237.97 148.04 274.95 142.3 298.39 179.8 327.29 194.95 334.19 218.58 202.29 215.46 184.15 244.01 154.72 251.92 126.69 225.94"/><polygon class="cls-6" points="126.69 225.94 126.69 188.75 149.72 173.01 180.19 168.94 214.82 163.64 237.97 148.04 274.95 142.3 298.39 179.8 327.29 194.95 334.19 218.58 202.29 215.46 184.15 244.01 154.72 251.92 126.69 225.94"/><polygon class="cls-7" points="44.98 467.51 60.15 445.21 81.21 445.13 66.03 467.44 44.98 467.51"/><polygon class="cls-7" points="66.22 467.44 81.4 445.13 102.46 445.06 87.28 467.36 66.22 467.44"/><polygon class="cls-7" points="102.46 444.5 87.28 422.31 66.23 422.39 81.4 444.57 102.46 444.5"/><polygon class="cls-7" points="81.21 444.57 66.03 422.39 44.98 422.46 60.15 444.65 81.21 444.57"/><line class="cls-8" x1="102.46" y1="443.93" x2="367.48" y2="443.01"/><polygon class="cls-7" points="60.37 444.65 45.19 422.46 24.14 422.53 39.32 444.72 60.37 444.65"/><polygon class="cls-7" points="24.14 467.87 39.32 445.57 60.37 445.5 45.2 467.8 24.14 467.87"/><polygon class="cls-7" points="424.98 420.85 409.79 443.15 388.74 443.22 403.91 420.92 424.98 420.85"/><polygon class="cls-7" points="403.72 420.92 388.55 443.23 367.48 443.3 382.66 421 403.72 420.92"/><polygon class="cls-7" points="367.48 443.87 382.66 466.05 403.72 465.97 388.54 443.79 367.48 443.87"/><polygon class="cls-7" points="388.74 443.79 403.91 465.97 424.97 465.9 409.8 443.72 388.74 443.79"/><polygon class="cls-7" points="409.57 443.72 424.75 465.9 445.81 465.83 430.63 443.65 409.57 443.72"/><polygon class="cls-7" points="445.81 420.77 430.63 443.08 409.57 443.15 424.75 420.85 445.81 420.77"/><polyline class="cls-4" points="327.92 218.61 204.55 219.04 194.35 235.14 184.15 244.01 158.25 246.26 132.34 243.39 132.35 266.68 166.1 533.61 305.64 530.3 334.83 234.65"/><path class="cls-9" d="M326,389.66,515.88,389Z" transform="translate(-187.97 -95.39)"/><line class="cls-10" x1="137.99" y1="294.27" x2="327.9" y2="293.61"/><path class="cls-9" d="M351.09,629l142.79-.5Z" transform="translate(-187.97 -95.39)"/><line class="cls-10" x1="163.11" y1="533.62" x2="305.9" y2="533.12"/><polyline class="cls-11" points="193.27 309.06 154.72 309.2 179.83 521.07 205.67 520.98"/><g class="cls-12"><path class="cls-13" d="M518,313.6a19.52,19.52,0,0,0-13.3-5.05l-57.59.2c5-15.32,18.83-26.14,34.89-26.19,18.28-.63,33.23,12.91,36,31m-36.55-38.41c-19.93.07-36.54,14.3-41.53,33.58l-49.83.18c-1.66,0-2.78,1.14-3.34,2.84l-.54,1.7c-4.43,16.45-18.83,27.84-35.45,27.89A35.16,35.16,0,0,1,323.67,329c-7.2-8.47-10-18.66-8.86-30a37.07,37.07,0,0,1,31.56-33A35.26,35.26,0,0,1,368,269.92,45,45,0,0,0,353,303.41a44.3,44.3,0,0,0,1.66,11.89c.55,1.7,1.66,2.83,3.33,2.82h1.09a3.61,3.61,0,0,0,2.23-4.54c-1.11-3.4-1.11-6.8-1.11-10.2,0-20.4,16.61-37.46,36.55-37.53,2.22,0,4.43.55,6.65.55a45.12,45.12,0,0,0-1.66,12.47,3.32,3.32,0,1,0,6.64,0c0-20.41,16.61-37.46,36.55-37.53,18.82-.07,34.87,14.61,36.54,33.87M524.67,326a29.17,29.17,0,0,0,1.11-6.8c0-22.1-16.07-40.75-37.11-44.07-1.65-23.23-20.49-41.3-43.18-41.22-17.17.06-32.11,10.31-39.31,25.64a52.15,52.15,0,0,0-9.42-1.1,39.88,39.88,0,0,0-22.71,6.87,46,46,0,0,0-28.8-6.13c-19.37,2.9-34.87,19.39-37.1,39.23-1.1,11.91,1.67,23.23,8.87,32.28l34,301.1,7.33,0L332,404.63l-.63-5.37-.72-7.65-5.92-52.4a44.22,44.22,0,0,0,26.58,9,43.06,43.06,0,0,0,41.54-32.44l112.4-.4a13.72,13.72,0,0,1,10,4.5,12.67,12.67,0,0,1,3.31,10.76L512,392l-.61,7.23h0L487.23,631.37l6.74,0,30.7-300.21Z" transform="translate(-187.97 -95.39)"/></g><polyline class="cls-14" points="205.67 520.97 289.1 520.67 310.09 308.65 193.27 309.06"/><g class="cls-5"><path class="cls-15" d="M480.91,187.43a18.45,18.45,0,0,0,18.68-18.57c0-10.55-8.35-19.7-18.68-19.67a19.13,19.13,0,0,0,0,38.24Z" transform="translate(-187.97 -95.39)"/><path class="cls-16" d="M396.32,161a29.2,29.2,0,0,0,29.25-29.45c0-16.55-13.1-30.54-29.25-30.49s-29.26,13.52-29.26,30.08S380.16,161,396.32,161Z" transform="translate(-187.97 -95.39)"/><line class="cls-10" x1="327.91" y1="215.02" x2="334.19" y2="225.22"/><line class="cls-10" x1="292.94" y1="179.81" x2="298.39" y2="184.34"/></g></g></g></g></svg>